<?xml version="1.0" encoding="utf-8"?>
<!-- Generator: Adobe Illustrator 23.0.3, SVG Export Plug-In . SVG Version: 6.00 Build 0)  -->
<svg version="1.1" xmlns="http://www.w3.org/2000/svg" xmlns:xlink="http://www.w3.org/1999/xlink" x="0px" y="0px"
	 viewBox="0 0 348.48 96.77" style="enable-background:new 0 0 348.48 96.77;" xml:space="preserve">
<style type="text/css">
	.st0{display:none;}
	.st1{display:inline;}
	.st2{fill:#FFFFFF;}
	.st3{fill-rule:evenodd;clip-rule:evenodd;fill:#FFFFFF;}
</style>
<g id="Ebene_2" class="st0">
	<rect x="24.69" y="2.94" class="st1" width="313.6" height="94.18"/>
</g>
<g id="Ebene_1">
	<path class="st2" d="M52.45,65.31c5.77,3.52,10.91,4.87,18.21,4.87c11.09,0,18.48-5.86,18.48-14.51c0-3.88-1.53-6.85-4.51-8.92
		c-2.16-1.44-5.05-2.34-10.28-3.34c-2.79-0.54-4.06-1.53-4.15-3.15c-0.09-1.62,1.35-2.7,3.79-2.7c3.15,0,5.59,0.72,9.37,2.79
		l4.06-9.37c-6.13-2.7-9.55-3.52-14.69-3.52c-10.73,0-17.58,5.23-17.58,13.52c0,3.43,1.62,6.76,4.33,8.65
		c1.98,1.44,4.33,2.16,9.19,2.7c3.52,0.45,5.41,1.62,5.41,3.43c0,2.07-2.25,3.34-6.04,3.34c-4.06,0-7.03-0.99-10.82-3.43
		L52.45,65.31L52.45,65.31z"/>
	<path class="st2" d="M95.62,69.18h15.32V47.82c0-1.71,0.09-3.06,0.36-4.06c0.72-3.06,2.97-4.87,6.04-4.87
		c4.51,0,6.49,2.61,6.49,8.83v21.45h15.32V46.92c0-1.62,0.09-2.7,0.27-3.52c0.72-2.7,3.25-4.51,6.13-4.51c4.42,0,6.4,2.52,6.4,8.11
		v22.17h15.32V47.82c0-7.93-0.09-8.74-0.9-11.09c-1.98-5.59-7.93-9.28-14.96-9.28c-6.49,0-10.55,2.34-14.78,8.29
		c-0.99-1.98-1.71-2.97-2.52-3.88c-2.61-2.79-6.58-4.51-10.73-4.51c-5.41,0-9.46,2.25-12.44,6.94v-5.41H95.62V69.18L95.62,69.18z"/>
	<path class="st3" d="M197.39,27.54c-14.6,0-24.61,8.65-24.61,21.27c0,12.71,10.01,21.36,24.61,21.36
		c14.51,0,24.52-8.65,24.52-21.36C221.91,36.19,211.91,27.54,197.39,27.54L197.39,27.54z M197.03,38.99c5.86,0,9.46,3.7,9.83,9.92
		c0.27,5.5-3.88,9.83-9.46,9.83c-5.59,0-9.55-4.15-9.55-9.83S191.81,38.99,197.03,38.99L197.03,38.99z"/>
	<polygon class="st2" points="221,28.89 239.84,69.18 250.84,69.18 259.4,49.62 268.15,69.18 279.42,69.18 297.53,28.89 
		282.48,28.89 272.75,49.62 263.82,28.89 254.54,28.89 245.88,49.62 237.32,28.89 221,28.89 	"/>
	<path class="st2" d="M38.59,96.77l-2.46-1.89C21.41,83.58,12.81,65.76,13.14,47.22c0.31-17.58,8.38-33.95,22.14-44.91L38.18,0
		l8.27,11.7l-2.55,2.07c-10.2,8.29-16.19,20.58-16.42,33.71C27.24,61.81,33.98,75.47,45.54,84l3.25,2.4L38.59,96.77z"/>
	<path class="st2" d="M309.88,96.77L299.69,86.4l3.25-2.4c11.55-8.53,18.3-22.19,18.05-36.52c-0.23-13.13-6.21-25.42-16.42-33.71
		l-2.55-2.07L310.3,0l2.91,2.32c13.76,10.96,21.83,27.33,22.14,44.91c0.32,18.54-8.27,36.35-22.99,47.66L309.88,96.77z"/>
</g>
</svg>
